<svg id="Layer_1" data-name="Layer 1" xmlns="http://www.w3.org/2000/svg" width="200" height="200" viewBox="0 0 200 200"><defs><style>.cls-1{fill:#c41230;}.cls-2{fill:#fff;}</style></defs><title>carnegie-mellon-university-logo-freelogovectors.net_</title><path class="cls-1" d="M0,0H200V200H0V0M26.71,52a16.16,16.16,0,0,0-3.45,17.42,12.46,12.46,0,0,0,6.49,6.8,12,12,0,0,0,10.35-.59c.66-.31,1.33-.85,2.1-.68.62.22.58,1,.67,1.54h1V67H42.84a14.56,14.56,0,0,1-1.1,4,8.26,8.26,0,0,1-5,4.72,5.93,5.93,0,0,1-5-.57,7.52,7.52,0,0,1-2.48-4.59,42.22,42.22,0,0,1-.61-9.53,24.87,24.87,0,0,1,1.15-7.41,5.87,5.87,0,0,1,2.89-3.52,6,6,0,0,1,6,1,12.38,12.38,0,0,1,4.21,7.49h1V49.5h-.92c-.16.35-.2.83-.59,1a3,3,0,0,1-2.16-.19,18.54,18.54,0,0,0-4.56-1.58A11.23,11.23,0,0,0,26.71,52m117.6-.1A2.63,2.63,0,1,0,147.56,54a2.65,2.65,0,0,0-3.25-2.07M76.38,59.53a5.91,5.91,0,0,0-3,3.2q0-1.47,0-2.94c-2.62,0-5.24,0-7.86,0,0,.35,0,.7,0,1.05h2.63c0,4.88,0,9.77,0,14.65H65.53c0,.36,0,.71,0,1.06,3.81,0,7.62,0,11.43,0V75.49H73.46c0-2.8,0-5.6,0-8.4a9.25,9.25,0,0,1,1.48-5.3c.29-.37.59-.82,1.08-.93.38.63-.28,1.43,0,2.12.43,1.76,2.73,2.33,4.15,1.41a2.94,2.94,0,0,0,.17-4.75,4.19,4.19,0,0,0-4-.12m13.8,3.21c0-1,0-2,0-3H82.31c0,.35,0,.7,0,1.06h2.64c0,4.9,0,9.79,0,14.69H82.3v1.05H92.46c0-.35,0-.7,0-1.05H90.18c0-3.15,0-6.31,0-9.46a5.4,5.4,0,0,1,1-2.79,5.21,5.21,0,0,1,2.67-2.38,2,2,0,0,1,2.21.66,6.07,6.07,0,0,1,.41,2.74c0,3.74,0,7.48,0,11.23H94.3v1.05h10.07V75.46h-2.64c0-3.67,0-7.35,0-11-.06-1.78-.69-3.78-2.37-4.66a7.17,7.17,0,0,0-9.17,3M48.51,61.41a2.77,2.77,0,0,0-.28,3.48,2.7,2.7,0,0,0,3,.72,2.26,2.26,0,0,0,1-3.36,3.4,3.4,0,0,0-1.73-.87,2.32,2.32,0,0,1,1.34-.79,8.45,8.45,0,0,1,4.12,0,2,2,0,0,1,1.32,1.85c.13,1.47,0,3,.07,4.42-3,.39-6.28.09-9,1.7a4.48,4.48,0,0,0-.67,6.93,7.06,7.06,0,0,0,5,1.49,5.94,5.94,0,0,0,4.69-2.32c1.13,2.61,5,3.1,6.92,1.18a4.06,4.06,0,0,0,1-2.58l-1,0a3.07,3.07,0,0,1-1.18,2.26,1.93,1.93,0,0,1-.78-1.92c0-3,0-6.08,0-9.11a4.53,4.53,0,0,0-2.08-3.84,11.31,11.31,0,0,0-6.05-1.34,7.82,7.82,0,0,0-5.71,2.14m58.1.77A9.38,9.38,0,0,0,106.4,74,8.73,8.73,0,0,0,117.06,76a8.47,8.47,0,0,0,3.72-5.66h-1.06a8,8,0,0,1-2.61,4.6,5.24,5.24,0,0,1-4.86.64,3.52,3.52,0,0,1-2-2.85,42,42,0,0,1-.16-5.38c3.51,0,7,0,10.54,0a8.59,8.59,0,0,0-6.24-7.82,8,8,0,0,0-7.81,2.72m17.27-1a5,5,0,0,0-1,5.9,5.63,5.63,0,0,0,2.68,2.42A4.27,4.27,0,0,0,122,72a5,5,0,0,0,.36,4.49,4.52,4.52,0,0,0,1.66,1.3,5.21,5.21,0,0,0-2.87,2.47,3.53,3.53,0,0,0,.68,3.83,8.24,8.24,0,0,0,5.47,2.44,9.55,9.55,0,0,0,7.05-1.94,8,8,0,0,0,2.82-6.17,5.68,5.68,0,0,0-1.21-4,5.28,5.28,0,0,0-3.76-1.41c-2.44,0-4.89,0-7.34,0-.38,0-.88,0-1-.45a1.47,1.47,0,0,1,.58-1.77,3,3,0,0,1,2.75-.65,7,7,0,0,0,4.45-.1,5.84,5.84,0,0,0,3.83-3.32,5.53,5.53,0,0,0-1.17-5.5,5.51,5.51,0,0,1,1.82-1,1.91,1.91,0,0,0,.33,2.4,1.66,1.66,0,0,0,2.67-1.12,2,2,0,0,0-1.76-2,4.24,4.24,0,0,0-3.6,1.08,8.19,8.19,0,0,0-9.85.61m28.73,1A9.37,9.37,0,0,0,152.39,74,8.74,8.74,0,0,0,163.06,76a8.5,8.5,0,0,0,3.72-5.66h-1.06a8.84,8.84,0,0,1-2,4.07,5.16,5.16,0,0,1-5.3,1.23,3.39,3.39,0,0,1-2.08-2.72,37,37,0,0,1-.19-5.57c3.51,0,7,0,10.53,0a8.56,8.56,0,0,0-6.42-7.86,8.05,8.05,0,0,0-7.63,2.76m-12.33-1.37h2V75.44H139.7v1.07h10.55c0-.36,0-.71,0-1.07-.89,0-1.77,0-2.64,0,0-5.25,0-10.51,0-15.76-2.43,0-4.87,0-7.3,0,0,.38,0,.76,0,1.14m-118.23,22v1.13h2.58c0,7.3,0,14.59,0,21.89a2.78,2.78,0,0,1-.79,2.26,3.37,3.37,0,0,1-1.78.53v1h6.64l0-1.05c-.82-.06-1.82.08-2.42-.6a4.91,4.91,0,0,1-.56-2.85c0-7.15,0-14.29,0-21.44,3.1,8.63,6.08,17.3,9.15,25.95h1Q40.36,96.88,44.8,84.1c.07,8.15,0,16.31,0,24.46H42.3v1.06H52.77v-1.07c-.83,0-1.67,0-2.5,0,0-8.21,0-16.43,0-24.64h2.5c0-.37,0-.74,0-1.1H44.07q-3.15,9-6.3,18-3.08-9-6.14-18.08H22.05m47.37.06c0,.33,0,.66,0,1h2.63q0,12.35,0,24.7H69.4l0,1.11c3.51,0,7,0,10.52,0v-1.09H77.32c0-8.56,0-17.12,0-25.68h-7.9m11.23,0v1H83.3q0,12.35,0,24.7H80.66c0,.37,0,.73,0,1.09,3.52,0,7,0,10.55,0v-1.1H88.58q0-12.84,0-25.69H80.65m36.48,13v-3c-2.63,0-5.27,0-7.9,0,0,.35,0,.7,0,1,.87,0,1.75,0,2.63,0v14.69h-2.63v1h10.17c0-.35,0-.7,0-1h-2.25c0-3.38,0-6.75,0-10.12a7.92,7.92,0,0,1,2.37-3.83,2.64,2.64,0,0,1,3-.49,2.85,2.85,0,0,1,.82,2.3c0,4,0,8.09,0,12.13h-2.18v1h10.07v-1h-2.63c0-3.08,0-6.16,0-9.24,0-1.81,0-3.81-1.13-5.33a5,5,0,0,0-4.21-1.74,7,7,0,0,0-6.21,3.55M55.64,95a9.38,9.38,0,0,0-.44,12.26,8.75,8.75,0,0,0,10.56,1.86,8.46,8.46,0,0,0,3.75-5.69H68.45a8.06,8.06,0,0,1-2.52,4.52,5.16,5.16,0,0,1-5,.7,3.55,3.55,0,0,1-2-2.86,41.63,41.63,0,0,1-.15-5.36H69.41a8.64,8.64,0,0,0-6.27-7.83,8,8,0,0,0-7.5,2.4m42.48-2.38a8.77,8.77,0,0,0-6,4.39,9.3,9.3,0,0,0,0,8.5,8.67,8.67,0,0,0,5.09,4.16,9.43,9.43,0,0,0,10.49-3.3,9,9,0,0,0-1.76-12.06,9.67,9.67,0,0,0-7.81-1.69M22.05,115.15v1h2.67v17.16a9,9,0,0,0,2.8,6.71,11.2,11.2,0,0,0,8.06,2.54,10.35,10.35,0,0,0,7-2.44,8.94,8.94,0,0,0,2.5-6.58c0-5,0-9.94,0-14.9a3,3,0,0,1,.58-2.1,3.56,3.56,0,0,1,2.18-.4v-1c-2.25,0-4.49,0-6.74,0v1a4.71,4.71,0,0,1,2,.3c.73.48.65,1.47.71,2.23q0,7.54,0,15.1a7.78,7.78,0,0,1-2.48,6,7,7,0,0,1-6.2,1.17,5.23,5.23,0,0,1-3.4-2.47,13.47,13.47,0,0,1-1.38-5.83c0-5.5,0-11,0-16.49h2.5v-1H22.05M160.57,117a9.42,9.42,0,0,1-2.52,6.36,6,6,0,0,1-4.09,1.86v1.08h2c0,3.9,0,7.8,0,11.69a4.3,4.3,0,0,0,1.34,3.34,5.06,5.06,0,0,0,5,.76,6,6,0,0,0,3-2.58l-.84-.48c-.53.74-1.18,1.74-2.25,1.58-.79-.12-.94-1.07-.94-1.73,0-4.19,0-8.39,0-12.58h5.3q3.48,8,7,16.06c-.68,1.55-1.33,3.12-2,4.68a2.35,2.35,0,0,1-.81,1.27,4.12,4.12,0,0,0-1.12-1.71,2.64,2.64,0,0,0-3.58,3.83,3.26,3.26,0,0,0,4,.49,6.12,6.12,0,0,0,2.23-2.92q4-9.37,7.94-18.76a8,8,0,0,1,1.48-2.51,2.58,2.58,0,0,1,1.55-.49v-1.07h-6c0,.37,0,.74,0,1.12.78.08,2.07-.2,2.35.78a5.87,5.87,0,0,1-.54,2.14c-.89,2.11-1.8,4.21-2.68,6.32-1.42-3-2.74-6.16-4.13-9.23h2.17c0-.38,0-.75,0-1.12H161.25c0-2.72,0-5.44,0-8.17h-.68m-86.27.46A2.63,2.63,0,1,0,77.71,119a2.64,2.64,0,0,0-3.41-1.48m73.79,0a2.64,2.64,0,1,0,3.4,1.49,2.65,2.65,0,0,0-3.4-1.49M124.19,125a6.22,6.22,0,0,0-2.81,3.07c0-1,0-1.95,0-2.92h-7.82c0,.36,0,.72,0,1.09h2.6c0,4.88,0,9.76,0,14.64h-2.59V142H125v-1.05h-3.5c0-2.6,0-5.2,0-7.79a9.86,9.86,0,0,1,1.49-5.93c.32-.39.65-1,1.25-.85a3.85,3.85,0,0,0,.12,2.68,2.92,2.92,0,0,0,4.51.26,3,3,0,0,0-.77-4.44,4.53,4.53,0,0,0-3.87.19m-69.13,3.22c0-1,0-2,0-3h-7.9v1h2.63V141H47.18c0,.35,0,.7,0,1.06,3.37,0,6.74.06,10.11,0,0-.34.05-.68.06-1H55.07c0-3.14,0-6.28,0-9.42a5,5,0,0,1,.9-2.66,5.44,5.44,0,0,1,2.72-2.55,2.08,2.08,0,0,1,2.19.54,5.12,5.12,0,0,1,.48,2.68V141H59.18c0,.35,0,.7,0,1.06h10l0-1.06H66.62c0-3.65,0-7.3,0-11,0-1.8-.66-3.82-2.35-4.72a7.14,7.14,0,0,0-9.2,3m76.52-1.34a6.09,6.09,0,0,0-.2,7c1.36,1.69,3.69,1.94,5.7,2.17,1.09.2,2.36.15,3.24.91a2.65,2.65,0,0,1-.91,3.71,5,5,0,0,1-5.42-.5,8,8,0,0,1-2.57-4.21h-.9v6.38l.89,0a1.4,1.4,0,0,1,1.7-.84,13.14,13.14,0,0,0,4,.86,6.17,6.17,0,0,0,6-5.29c.27-1.83-.09-4-1.78-5.11-2.08-1.26-4.61-1.14-6.91-1.68a2.12,2.12,0,0,1-.47-4.13,5.57,5.57,0,0,1,4.26,0c1.55.76,2.27,2.44,2.9,3.95l.91,0c-.05-1.8,0-3.6,0-5.4h-.78c-.21.4-.5.82-1,.84-1.32,0-2.47-.78-3.78-.82a5.5,5.5,0,0,0-4.88,2.15m-32.32.6a9.4,9.4,0,0,0-.34,12,8.75,8.75,0,0,0,10.57,1.93,8.38,8.38,0,0,0,3.79-5.74l-1.07.05c-.47,1.94-1.38,4-3.23,5a5.61,5.61,0,0,1-3.91.36,3.33,3.33,0,0,1-2.21-2.65,33,33,0,0,1-.24-5.71h10.56a8.63,8.63,0,0,0-6.25-7.81,8,8,0,0,0-7.67,2.55M70,125.18v1.13h2.65q0,7.32,0,14.64H70c0,.35,0,.69,0,1,3.52.09,7,0,10.56,0V141H77.88V125.18c-2.63,0-5.27,0-7.91,0m9.29,0c0,.35,0,.71,0,1.07h1.79q3.5,8.07,7,16.14h1.06q2.76-6.54,5.54-13.09a8.25,8.25,0,0,1,1.58-2.64,2.34,2.34,0,0,1,1.48-.47v-1c-2,0-4,0-6,0,0,.35,0,.71,0,1.06a6.85,6.85,0,0,1,2.07.15c.55.56.19,1.44,0,2.1-.92,2.38-2,4.69-3,7.06-1.4-3.1-2.76-6.21-4.15-9.31h2.11c0-.36,0-.72,0-1.07-3.19,0-6.39,0-9.59,0m64.53,0c0,.38,0,.75,0,1.13h2.66c0,4.88,0,9.76,0,14.64h-2.62c0,.36,0,.71,0,1.07h10.5c0-.36,0-.71,0-1.07h-2.64q0-7.89,0-15.77h-7.9M110.57,61.46a2.28,2.28,0,0,1,4,.17c.52,1.48.26,3.09.32,4.62h-4.8c.08-1.6-.26-3.31.45-4.8m17.48-1c1-.21,2.49-.4,2.93.75a12.3,12.3,0,0,1,.41,3.87,7.73,7.73,0,0,1-.66,3.65c-.54.82-1.68.71-2.53.61A1.65,1.65,0,0,1,127,68a19.13,19.13,0,0,1-.23-4.9c.07-1,.27-2.23,1.32-2.6m28.52,1a2.26,2.26,0,0,1,3.93,0c.66,1.5.35,3.19.42,4.77h-4.78c.09-1.59-.29-3.3.43-4.79m-103.47,7a24.78,24.78,0,0,1,4.21-.57c0,1.37,0,2.75,0,4.13a4.29,4.29,0,0,1-1.1,2.84,2.74,2.74,0,0,1-3.92,0c-.78-1-.66-2.45-.65-3.69a2.59,2.59,0,0,1,1.47-2.66m70.11,12.69a6,6,0,0,1,1.84-3.28c2.61.06,5.23,0,7.84.07.86.07,2,.13,2.41,1a3.89,3.89,0,0,1-.58,3.81,7.85,7.85,0,0,1-5.17,2.87,6.67,6.67,0,0,1-4.57-.81,3.8,3.8,0,0,1-1.77-3.65M59.29,94.6a2.28,2.28,0,0,1,4,.09c.55,1.49.27,3.12.34,4.68-1.6,0-3.19,0-4.79,0,.08-1.59-.26-3.29.43-4.77M99,93.66a3.24,3.24,0,0,1,3.49.77,5,5,0,0,1,.82,3.12c0,2.6,0,5.2,0,7.79,0,1.28-.4,2.78-1.64,3.39a3.28,3.28,0,0,1-3.73-.62,5.07,5.07,0,0,1-.86-3.23c0-2.59,0-5.17,0-7.76,0-1.35.49-3,1.91-3.46m4.13,33.26a2.36,2.36,0,0,1,3.22-.77,2.84,2.84,0,0,1,1.07,2.31c.06,1.08,0,2.18,0,3.27h-4.78c.08-1.59-.28-3.31.47-4.8Z"/><path class="cls-2" d="M26.71,52a11.23,11.23,0,0,1,8.86-3.28,18.54,18.54,0,0,1,4.56,1.58,3,3,0,0,0,2.16.19c.39-.18.43-.66.59-1h.92v9.11h-1a12.38,12.38,0,0,0-4.21-7.49,6,6,0,0,0-6-1,5.87,5.87,0,0,0-2.89,3.52,24.87,24.87,0,0,0-1.15,7.41,42.22,42.22,0,0,0,.61,9.53,7.52,7.52,0,0,0,2.48,4.59,5.93,5.93,0,0,0,5,.57,8.26,8.26,0,0,0,5-4.72,14.56,14.56,0,0,0,1.1-4H43.9v9.49h-1c-.09-.54,0-1.32-.67-1.54-.77-.17-1.44.37-2.1.68a12,12,0,0,1-10.35.59,12.46,12.46,0,0,1-6.49-6.8A16.16,16.16,0,0,1,26.71,52m117.6-.1a2.63,2.63,0,1,1-2,2.75,2.64,2.64,0,0,1,2-2.75M76.38,59.53a4.19,4.19,0,0,1,4,.12,2.94,2.94,0,0,1-.17,4.75c-1.42.92-3.72.35-4.15-1.41-.31-.69.35-1.49,0-2.12-.49.11-.79.56-1.08.93a9.25,9.25,0,0,0-1.48,5.3c0,2.8,0,5.6,0,8.4H77v1.07c-3.81,0-7.62,0-11.43,0,0-.35,0-.7,0-1.06h2.64c0-4.88,0-9.77,0-14.65H65.53c0-.35,0-.7,0-1.05,2.62,0,5.24,0,7.86,0q0,1.47,0,2.94a5.91,5.91,0,0,1,3-3.2m13.8,3.21a7.17,7.17,0,0,1,9.17-3c1.68.88,2.31,2.88,2.37,4.66,0,3.67,0,7.35,0,11h2.64v1.05H94.3V75.46h2.18c0-3.75,0-7.49,0-11.23a6.07,6.07,0,0,0-.41-2.74,2,2,0,0,0-2.21-.66,5.21,5.21,0,0,0-2.67,2.38,5.4,5.4,0,0,0-1,2.79c0,3.15,0,6.31,0,9.46h2.29c0,.35,0,.7,0,1.05H82.3V75.46h2.62c0-4.9,0-9.79,0-14.69H82.29c0-.36,0-.71,0-1.06h7.88c0,1,0,2,0,3M48.51,61.41a7.82,7.82,0,0,1,5.71-2.14,11.31,11.31,0,0,1,6.05,1.34,4.53,4.53,0,0,1,2.08,3.84c0,3,0,6.07,0,9.11a1.93,1.93,0,0,0,.78,1.92,3.07,3.07,0,0,0,1.18-2.26l1,0a4.06,4.06,0,0,1-1,2.58c-1.95,1.92-5.79,1.43-6.92-1.18A5.94,5.94,0,0,1,52.66,77a7.06,7.06,0,0,1-5-1.49,4.48,4.48,0,0,1,.67-6.93c2.7-1.61,6-1.31,9-1.7,0-1.47.06-3-.07-4.42a2,2,0,0,0-1.32-1.85,8.45,8.45,0,0,0-4.12,0,2.32,2.32,0,0,0-1.34.79,3.4,3.4,0,0,1,1.73.87,2.26,2.26,0,0,1-1,3.36,2.7,2.7,0,0,1-3-.72,2.77,2.77,0,0,1,.28-3.48m4.59,7a2.59,2.59,0,0,0-1.47,2.66c0,1.24-.13,2.64.65,3.69a2.74,2.74,0,0,0,3.92,0A4.29,4.29,0,0,0,57.3,72c0-1.38,0-2.76,0-4.13a24.78,24.78,0,0,0-4.21.57m53.51-6.27a8,8,0,0,1,7.81-2.72,8.59,8.59,0,0,1,6.24,7.82c-3.52,0-7,0-10.54,0a42,42,0,0,0,.16,5.38,3.52,3.52,0,0,0,2,2.85,5.24,5.24,0,0,0,4.86-.64,8,8,0,0,0,2.61-4.6h1.06A8.47,8.47,0,0,1,117.06,76,8.73,8.73,0,0,1,106.4,74a9.38,9.38,0,0,1,.21-11.85m4-.72c-.71,1.49-.37,3.2-.45,4.8h4.8c-.06-1.53.2-3.14-.32-4.62a2.28,2.28,0,0,0-4-.17m13.31-.23a8.19,8.19,0,0,1,9.85-.61,4.24,4.24,0,0,1,3.6-1.08,2,2,0,0,1,1.76,2,1.66,1.66,0,0,1-2.67,1.12,1.91,1.91,0,0,1-.33-2.4,5.51,5.51,0,0,0-1.82,1,5.53,5.53,0,0,1,1.17,5.5,5.84,5.84,0,0,1-3.83,3.32,7,7,0,0,1-4.45.1,3,3,0,0,0-2.75.65,1.47,1.47,0,0,0-.58,1.77c.17.4.67.44,1,.45,2.45,0,4.9,0,7.34,0A5.28,5.28,0,0,1,136,74.47a5.68,5.68,0,0,1,1.21,4,8,8,0,0,1-2.82,6.17,9.55,9.55,0,0,1-7.05,1.94,8.24,8.24,0,0,1-5.47-2.44,3.53,3.53,0,0,1-.68-3.83A5.21,5.21,0,0,1,124,77.82a4.52,4.52,0,0,1-1.66-1.3A5,5,0,0,1,122,72a4.27,4.27,0,0,1,3.51-2.48,5.63,5.63,0,0,1-2.68-2.42,5,5,0,0,1,1-5.9m4.17-.74c-1.05.37-1.25,1.63-1.32,2.6A19.13,19.13,0,0,0,127,68a1.65,1.65,0,0,0,1.24,1.38c.85.1,2,.21,2.53-.61a7.73,7.73,0,0,0,.66-3.65,12.3,12.3,0,0,0-.41-3.87c-.44-1.15-2-1-2.93-.75m-4.84,20.65A3.8,3.8,0,0,0,125,84.79a6.67,6.67,0,0,0,4.57.81,7.85,7.85,0,0,0,5.17-2.87,3.89,3.89,0,0,0,.58-3.81c-.46-.86-1.55-.92-2.41-1-2.61-.11-5.23,0-7.84-.07a6,6,0,0,0-1.84,3.28m29.4-19a8.05,8.05,0,0,1,7.63-2.76,8.56,8.56,0,0,1,6.42,7.86c-3.51,0-7,0-10.53,0a37,37,0,0,0,.19,5.57,3.39,3.39,0,0,0,2.08,2.72,5.16,5.16,0,0,0,5.3-1.23,8.84,8.84,0,0,0,2-4.07h1.06A8.5,8.5,0,0,1,163.06,76,8.74,8.74,0,0,1,152.39,74a9.37,9.37,0,0,1,.22-11.85m4-.71c-.72,1.49-.34,3.2-.43,4.79h4.78c-.07-1.58.24-3.27-.42-4.77a2.26,2.26,0,0,0-3.93,0m-16.29-.66c0-.38,0-.76,0-1.14,2.43,0,4.87,0,7.3,0,0,5.25,0,10.51,0,15.76.87,0,1.75,0,2.64,0,0,.36,0,.71,0,1.07H139.7V75.44h2.62V60.81h-2m-118.23,22h9.58q3.06,9,6.14,18.08,3.13-9,6.3-18H52.8c0,.36,0,.73,0,1.1h-2.5c0,8.21,0,16.43,0,24.64.83,0,1.67,0,2.5,0v1.07H42.3v-1.06h2.54c0-8.15,0-16.31,0-24.46q-4.45,12.77-8.91,25.53h-1c-3.07-8.65-6.05-17.32-9.15-25.95-.06,7.15,0,14.29,0,21.44a4.91,4.91,0,0,0,.56,2.85c.6.68,1.6.54,2.42.6l0,1.05H22.05v-1a3.37,3.37,0,0,0,1.78-.53,2.78,2.78,0,0,0,.79-2.26c0-7.3,0-14.59,0-21.89H22.05V82.78m47.37.06h7.9c0,8.56,0,17.12,0,25.68H80v1.09c-3.51,0-7,0-10.52,0l0-1.11h2.66q0-12.34,0-24.7H69.42c0-.33,0-.66,0-1m11.23,0h7.94q0,12.84,0,25.69H91.2v1.1c-3.52,0-7,0-10.55,0,0-.36,0-.72,0-1.09H83.3q0-12.34,0-24.7H80.65v-1m36.48,13a7,7,0,0,1,6.21-3.55A5,5,0,0,1,127.55,94c1.14,1.52,1.1,3.52,1.13,5.33,0,3.08,0,6.16,0,9.24h2.63v1H121.21v-1h2.18c0-4,0-8.09,0-12.13a2.85,2.85,0,0,0-.82-2.3,2.64,2.64,0,0,0-3,.49,7.92,7.92,0,0,0-2.37,3.83c-.07,3.37,0,6.74,0,10.12h2.25c0,.35,0,.7,0,1H109.21v-1h2.63V93.89c-.88,0-1.76,0-2.63,0,0-.35,0-.7,0-1,2.63,0,5.27,0,7.9,0v3M55.64,95a8,8,0,0,1,7.5-2.4,8.64,8.64,0,0,1,6.27,7.83H58.86a41.63,41.63,0,0,0,.15,5.36,3.55,3.55,0,0,0,2,2.86,5.16,5.16,0,0,0,5-.7,8.06,8.06,0,0,0,2.52-4.52h1.06a8.46,8.46,0,0,1-3.75,5.69,8.75,8.75,0,0,1-10.56-1.86A9.38,9.38,0,0,1,55.64,95m3.65-.37c-.69,1.48-.35,3.18-.43,4.77,1.6,0,3.19,0,4.79,0-.07-1.56.21-3.19-.34-4.68a2.28,2.28,0,0,0-4-.09m38.83-2a9.67,9.67,0,0,1,7.81,1.69,9,9,0,0,1,1.76,12.06,9.43,9.43,0,0,1-10.49,3.3,8.67,8.67,0,0,1-5.09-4.16,9.3,9.3,0,0,1,0-8.5,8.77,8.77,0,0,1,6-4.39M99,93.66c-1.42.47-1.89,2.11-1.91,3.46,0,2.59,0,5.17,0,7.76a5.07,5.07,0,0,0,.86,3.23,3.28,3.28,0,0,0,3.73.62c1.24-.61,1.62-2.11,1.64-3.39,0-2.59,0-5.19,0-7.79a5,5,0,0,0-.82-3.12A3.24,3.24,0,0,0,99,93.66M22.05,115.15h10.8v1h-2.5c0,5.49,0,11,0,16.49a13.47,13.47,0,0,0,1.38,5.83,5.23,5.23,0,0,0,3.4,2.47,7,7,0,0,0,6.2-1.17,7.78,7.78,0,0,0,2.48-6q0-7.56,0-15.1c-.06-.76,0-1.75-.71-2.23a4.71,4.71,0,0,0-2-.3v-1c2.25,0,4.49,0,6.74,0v1a3.56,3.56,0,0,0-2.18.4,3,3,0,0,0-.58,2.1c0,5,0,9.93,0,14.9a8.94,8.94,0,0,1-2.5,6.58,10.35,10.35,0,0,1-7,2.44A11.2,11.2,0,0,1,27.52,140a9,9,0,0,1-2.8-6.71V116.17H22.05v-1M160.57,117h.68c0,2.73,0,5.45,0,8.17h13.13c0,.37,0,.74,0,1.12h-2.17c1.39,3.07,2.71,6.18,4.13,9.23.88-2.11,1.79-4.21,2.68-6.32a5.87,5.87,0,0,0,.54-2.14c-.28-1-1.57-.7-2.35-.78,0-.38,0-.75,0-1.12h6v1.07a2.58,2.58,0,0,0-1.55.49,8,8,0,0,0-1.48,2.51q-4,9.38-7.94,18.76a6.12,6.12,0,0,1-2.23,2.92,3.26,3.26,0,0,1-4-.49,2.64,2.64,0,0,1,3.58-3.83,4.12,4.12,0,0,1,1.12,1.71,2.35,2.35,0,0,0,.81-1.27c.66-1.56,1.31-3.13,2-4.68q-3.47-8-7-16.06h-5.3c0,4.19,0,8.39,0,12.58,0,.66.15,1.61.94,1.73,1.07.16,1.72-.84,2.25-1.58l.84.48a6,6,0,0,1-3,2.58,5.06,5.06,0,0,1-5-.76A4.3,4.3,0,0,1,156,138c0-3.89,0-7.79,0-11.69h-2v-1.08a6,6,0,0,0,4.09-1.86,9.42,9.42,0,0,0,2.52-6.36m-86.27.46a2.63,2.63,0,1,1-1.53,3.35,2.65,2.65,0,0,1,1.53-3.35m73.79,0a2.64,2.64,0,1,1-1.54,3.36,2.66,2.66,0,0,1,1.54-3.36M124.19,125a4.53,4.53,0,0,1,3.87-.19,3,3,0,0,1,.77,4.44,2.92,2.92,0,0,1-4.51-.26,3.85,3.85,0,0,1-.12-2.68c-.6-.12-.93.46-1.25.85a9.86,9.86,0,0,0-1.49,5.93c0,2.59,0,5.19,0,7.79H125V142H113.58v-1.05h2.59c0-4.88,0-9.76,0-14.64h-2.6c0-.37,0-.73,0-1.09h7.82c0,1,0,1.95,0,2.92a6.22,6.22,0,0,1,2.81-3.07m-69.13,3.22a7.14,7.14,0,0,1,9.2-3c1.69.9,2.3,2.92,2.35,4.72,0,3.65,0,7.3,0,11h2.64l0,1.06h-10c0-.36,0-.71,0-1.06h2.18V129.55a5.12,5.12,0,0,0-.48-2.68,2.08,2.08,0,0,0-2.19-.54A5.44,5.44,0,0,0,56,128.88a5,5,0,0,0-.9,2.66c0,3.14,0,6.28,0,9.42h2.29c0,.33,0,.67-.06,1-3.37.1-6.74,0-10.11,0,0-.36,0-.71,0-1.06h2.63V126.28H47.18v-1h7.9c0,1,0,2,0,3m76.52-1.34a5.5,5.5,0,0,1,4.88-2.15c1.31,0,2.46.87,3.78.82.49,0,.78-.44,1-.84H142c0,1.8,0,3.6,0,5.4l-.91,0c-.63-1.51-1.35-3.19-2.9-3.95a5.57,5.57,0,0,0-4.26,0,2.12,2.12,0,0,0,.47,4.13c2.3.54,4.83.42,6.91,1.68,1.69,1.06,2,3.28,1.78,5.11a6.17,6.17,0,0,1-6,5.29,13.14,13.14,0,0,1-4-.86,1.4,1.4,0,0,0-1.7.84l-.89,0V136h.9a8,8,0,0,0,2.57,4.21,5,5,0,0,0,5.42.5,2.65,2.65,0,0,0,.91-3.71c-.88-.76-2.15-.71-3.24-.91-2-.23-4.34-.48-5.7-2.17a6.09,6.09,0,0,1,.2-7m-32.32.6a8,8,0,0,1,7.67-2.55,8.63,8.63,0,0,1,6.25,7.81H102.62a33,33,0,0,0,.24,5.71,3.33,3.33,0,0,0,2.21,2.65,5.61,5.61,0,0,0,3.91-.36c1.85-1,2.76-3,3.23-5l1.07-.05a8.38,8.38,0,0,1-3.79,5.74,8.75,8.75,0,0,1-10.57-1.93,9.4,9.4,0,0,1,.34-12m3.84-.59c-.75,1.49-.39,3.21-.47,4.8h4.78c0-1.09,0-2.19,0-3.27a2.84,2.84,0,0,0-1.07-2.31,2.36,2.36,0,0,0-3.22.77M70,125.18c2.64,0,5.28,0,7.91,0V141h2.64V142c-3.52,0-7,.06-10.56,0,0-.35,0-.69,0-1h2.65q0-7.32,0-14.64H70v-1.13m9.29,0c3.2,0,6.4,0,9.59,0,0,.35,0,.71,0,1.07H86.73c1.39,3.1,2.75,6.21,4.15,9.31,1-2.37,2-4.68,3-7.06.18-.66.54-1.54,0-2.1a6.85,6.85,0,0,0-2.07-.15c0-.35,0-.71,0-1.06,2,0,4,0,6,0v1a2.34,2.34,0,0,0-1.48.47,8.25,8.25,0,0,0-1.58,2.64q-2.77,6.54-5.54,13.09H88.06q-3.51-8.07-7-16.14H79.27c0-.36,0-.72,0-1.07m64.53,0h7.9q0,7.89,0,15.77h2.64c0,.36,0,.71,0,1.07h-10.5c0-.36,0-.71,0-1.07h2.62c0-4.88,0-9.76,0-14.64h-2.66c0-.38,0-.75,0-1.13Z"/></svg>