<?xml version="1.0" encoding="UTF-8" standalone="no"?>
<svg
   xmlns:dc="http://purl.org/dc/elements/1.1/"
   xmlns:cc="http://creativecommons.org/ns#"
   xmlns:rdf="http://www.w3.org/1999/02/22-rdf-syntax-ns#"
   xmlns:svg="http://www.w3.org/2000/svg"
   xmlns="http://www.w3.org/2000/svg"
   xmlns:xlink="http://www.w3.org/1999/xlink"
   xmlns:sodipodi="http://sodipodi.sourceforge.net/DTD/sodipodi-0.dtd"
   xmlns:inkscape="http://www.inkscape.org/namespaces/inkscape"
   version="1.1"
   x="0px"
   y="0px"
   viewBox="0 0 220.70238 127.29838"
   enable-background="new 0 0 595.3 600.7"
   xml:space="preserve"
   id="svg2"
   inkscape:version="0.91 r13725"
   sodipodi:docname="logo.svg"
   width="220.70238"
   height="127.29839"><metadata
     id="metadata1864"><rdf:RDF><cc:Work
         rdf:about=""><dc:format>image/svg+xml</dc:format><dc:type
           rdf:resource="http://purl.org/dc/dcmitype/StillImage" /><dc:title></dc:title></cc:Work></rdf:RDF></metadata><defs
     id="defs1862"><defs
       id="defs13"><path
         id="SVGID_1_"
         d="m 485.7,399.9 c -1,2 -1.8,3.6 -2.4,4.6 l 22.9,1 3.4,-5.6 3.1,-6.2 0.7,-4.9 -1.4,-5.1 -2.8,-4.5 -2.7,-5.2 c -6.4,8.8 -13.6,17.8 -20.8,25.9 m 14.7,-34.2 c -0.8,1.8 -2.7,6.3 -4.9,11.7 3.2,-3.2 6.3,-6.4 9.3,-9.5 l -0.3,-2.5 -4.1,0.3 z"
         inkscape:connector-curvature="0" /></defs><clipPath
       id="SVGID_2_"><use
         xlink:href="#SVGID_1_"
         overflow="visible"
         id="use19"
         style="overflow:visible"
         x="0"
         y="0"
         width="100%"
         height="100%" /></clipPath><clipPath
       id="clipPath4781"
       clipPathUnits="userSpaceOnUse"><path
         inkscape:connector-curvature="0"
         id="path4783"
         d="m 0,0 35.892,0 0,720 L 0,720 0,0 Z" /></clipPath><clipPath
       id="clipPath4795"
       clipPathUnits="userSpaceOnUse"><path
         inkscape:connector-curvature="0"
         id="path4797"
         d="M 0,0 504,0 504,720 0,720 0,0 Z" /></clipPath><clipPath
       id="clipPath4803"
       clipPathUnits="userSpaceOnUse"><path
         inkscape:connector-curvature="0"
         id="path4805"
         d="m -521,732.463 557.8916,0 0,-742.463 -557.8916,0 0,742.463 z" /></clipPath><clipPath
       id="clipPath4821"
       clipPathUnits="userSpaceOnUse"><path
         inkscape:connector-curvature="0"
         id="path4823"
         d="M 0,0 504,0 504,720 0,720 0,0 Z" /></clipPath><clipPath
       id="clipPath4841"
       clipPathUnits="userSpaceOnUse"><path
         inkscape:connector-curvature="0"
         id="path4843"
         d="M 0,0 504,0 504,720 0,720 0,0 Z" /></clipPath><clipPath
       id="clipPath4861"
       clipPathUnits="userSpaceOnUse"><path
         inkscape:connector-curvature="0"
         id="path4863"
         d="M 0,0 504,0 504,720 0,720 0,0 Z" /></clipPath><clipPath
       id="clipPath4885"
       clipPathUnits="userSpaceOnUse"><path
         inkscape:connector-curvature="0"
         id="path4887"
         d="M 0,0 504,0 504,720 0,720 0,0 Z" /></clipPath><clipPath
       id="clipPath4901"
       clipPathUnits="userSpaceOnUse"><path
         inkscape:connector-curvature="0"
         id="path4903"
         d="M 0,0 504,0 504,720 0,720 0,0 Z" /></clipPath><clipPath
       id="clipPath5161"
       clipPathUnits="userSpaceOnUse"><path
         inkscape:connector-curvature="0"
         id="path5163"
         d="M 0,0 504,0 504,720 0,720 0,0 Z" /></clipPath><clipPath
       id="clipPath5201"
       clipPathUnits="userSpaceOnUse"><path
         inkscape:connector-curvature="0"
         id="path5203"
         d="m 64.238,81.108 72.563,0 0,44.968 -72.563,0 0,-44.968 z" /></clipPath></defs><sodipodi:namedview
     pagecolor="#ffffff"
     bordercolor="#666666"
     borderopacity="1"
     objecttolerance="10"
     gridtolerance="10"
     guidetolerance="10"
     inkscape:pageopacity="0"
     inkscape:pageshadow="2"
     inkscape:window-width="1417"
     inkscape:window-height="776"
     id="namedview1860"
     showgrid="false"
     inkscape:zoom="1"
     inkscape:cx="188.38277"
     inkscape:cy="53.093976"
     inkscape:window-x="129"
     inkscape:window-y="143"
     inkscape:window-maximized="0"
     inkscape:current-layer="svg2"
     fit-margin-top="0"
     fit-margin-left="0"
     fit-margin-right="0"
     fit-margin-bottom="0" /><g
     id="g5898"
     transform="matrix(2.3568007,0,0,2.3568007,181.70418,-786.58475)"><g
       transform="matrix(1.25,0,0,-1.25,-34.636675,334.59968)"
       id="g5189"><path
         inkscape:connector-curvature="0"
         id="path5191"
         style="fill:#858889;fill-opacity:1;fill-rule:nonzero;stroke:none"
         d="m 0,0 0,-23.916 3.691,0 0.957,0 2.5,0 L 7.148,0 0,0 Z" /></g><g
       transform="matrix(1.25,0,0,-1.25,-24.898675,334.59968)"
       id="g5193"><path
         inkscape:connector-curvature="0"
         id="path5195"
         style="fill:#4d5054;fill-opacity:1;fill-rule:nonzero;stroke:none"
         d="m 0,0 0,-5.904 2.949,0 0,-18.012 7.505,0 0,18.012 8.1,0 0,5.904 L 0,0 Z" /></g><g
       transform="matrix(1.25,0,0,-1.25,-155.92405,492.19418)"
       id="g5197"><g
         clip-path="url(#clipPath5201)"
         id="g5199"><g
           transform="translate(86.6573,88.4031)"
           id="g5205"><path
             inkscape:connector-curvature="0"
             id="path5207"
             style="fill:#4d5054;fill-opacity:1;fill-rule:nonzero;stroke:none"
             d="m 0,0 -0.561,-0.332 c -0.104,0.182 -0.205,0.301 -0.299,0.356 -0.099,0.064 -0.227,0.095 -0.383,0.095 -0.192,0 -0.352,-0.054 -0.478,-0.163 -0.126,-0.107 -0.19,-0.241 -0.19,-0.404 0,-0.224 0.166,-0.404 0.498,-0.541 l 0.457,-0.187 c 0.372,-0.15 0.644,-0.334 0.816,-0.551 0.173,-0.216 0.259,-0.482 0.259,-0.796 0,-0.422 -0.141,-0.77 -0.421,-1.045 -0.284,-0.278 -0.635,-0.416 -1.054,-0.416 -0.397,0 -0.726,0.118 -0.985,0.355 -0.255,0.236 -0.414,0.567 -0.478,0.995 l 0.7,0.154 c 0.032,-0.269 0.087,-0.455 0.167,-0.558 0.142,-0.197 0.35,-0.297 0.623,-0.297 0.215,0 0.395,0.073 0.537,0.217 0.142,0.144 0.214,0.327 0.214,0.548 0,0.089 -0.013,0.171 -0.038,0.245 -0.024,0.074 -0.063,0.143 -0.116,0.204 -0.052,0.063 -0.119,0.121 -0.202,0.175 -0.084,0.055 -0.183,0.106 -0.298,0.156 l -0.441,0.184 c -0.628,0.265 -0.941,0.652 -0.941,1.162 0,0.344 0.131,0.631 0.394,0.863 0.264,0.233 0.591,0.349 0.983,0.349 C -0.709,0.768 -0.297,0.513 0,0" /></g><g
           transform="translate(91.5321,86.8054)"
           id="g5209"><path
             inkscape:connector-curvature="0"
             id="path5211"
             style="fill:#4d5054;fill-opacity:1;fill-rule:nonzero;stroke:none"
             d="m 0,0 c 0,-0.506 0.17,-0.922 0.51,-1.248 0.339,-0.326 0.729,-0.489 1.172,-0.489 0.481,0 0.886,0.166 1.216,0.499 0.331,0.335 0.496,0.744 0.496,1.227 0,0.488 -0.163,0.897 -0.489,1.226 C 2.58,1.548 2.179,1.714 1.7,1.714 1.224,1.714 0.821,1.548 0.493,1.215 0.164,0.888 0,0.483 0,0 m -0.697,0.007 c 0,0.646 0.236,1.199 0.709,1.662 0.471,0.463 1.036,0.695 1.697,0.695 0.653,0 1.212,-0.234 1.679,-0.701 0.469,-0.466 0.703,-1.027 0.703,-1.682 0,-0.659 -0.235,-1.218 -0.706,-1.677 -0.472,-0.461 -1.043,-0.691 -1.712,-0.691 -0.591,0 -1.122,0.205 -1.593,0.615 -0.518,0.452 -0.777,1.046 -0.777,1.779" /></g><g
           transform="translate(99.0836,86.2642)"
           id="g5213"><path
             inkscape:connector-curvature="0"
             id="path5215"
             style="fill:#4d5054;fill-opacity:1;fill-rule:nonzero;stroke:none"
             d="M 0,0 -0.679,1.558 -1.391,0 0,0 Z m 0.282,-0.65 -1.961,0 -0.51,-1.112 -0.745,0 2.267,4.869 2.187,-4.869 -0.757,0 -0.481,1.112 z" /></g><g
           transform="translate(101.5886,84.5018)"
           id="g5217"><path
             inkscape:connector-curvature="0"
             id="path5219"
             style="fill:#4d5054;fill-opacity:1;fill-rule:nonzero;stroke:none"
             d="m 0,0 0,4.893 3.341,-3.496 0,3.184 0.692,0 0,-4.86 L 0.691,3.208 0.691,0 0,0 Z" /></g><g
           transform="translate(112.012,88.4031)"
           id="g5221"><path
             inkscape:connector-curvature="0"
             id="path5223"
             style="fill:#4d5054;fill-opacity:1;fill-rule:nonzero;stroke:none"
             d="m 0,0 -0.561,-0.332 c -0.105,0.182 -0.205,0.301 -0.3,0.356 -0.098,0.064 -0.227,0.095 -0.383,0.095 -0.191,0 -0.351,-0.054 -0.477,-0.163 -0.127,-0.107 -0.19,-0.241 -0.19,-0.404 0,-0.224 0.166,-0.404 0.498,-0.541 l 0.458,-0.187 c 0.371,-0.15 0.643,-0.334 0.815,-0.551 0.172,-0.216 0.258,-0.482 0.258,-0.796 0,-0.422 -0.14,-0.77 -0.421,-1.045 -0.283,-0.278 -0.634,-0.416 -1.054,-0.416 -0.397,0 -0.726,0.118 -0.984,0.355 -0.256,0.236 -0.415,0.567 -0.478,0.995 l 0.7,0.154 c 0.032,-0.269 0.087,-0.455 0.166,-0.558 0.142,-0.197 0.351,-0.297 0.624,-0.297 0.215,0 0.394,0.073 0.536,0.217 0.143,0.144 0.214,0.327 0.214,0.548 0,0.089 -0.013,0.171 -0.037,0.245 -0.025,0.074 -0.063,0.143 -0.116,0.204 -0.052,0.063 -0.12,0.121 -0.203,0.175 -0.083,0.055 -0.182,0.106 -0.296,0.156 l -0.444,0.184 c -0.626,0.265 -0.94,0.652 -0.94,1.162 0,0.344 0.132,0.631 0.395,0.863 0.263,0.233 0.59,0.349 0.982,0.349 C -0.71,0.768 -0.297,0.513 0,0" /></g><g
           transform="translate(116.7149,88.8378)"
           id="g5225"><path
             inkscape:connector-curvature="0"
             id="path5227"
             style="fill:#4d5054;fill-opacity:1;fill-rule:nonzero;stroke:none"
             d="m 0,0 0,-0.817 c -0.398,0.335 -0.812,0.501 -1.24,0.501 -0.47,0 -0.867,-0.168 -1.19,-0.507 -0.324,-0.336 -0.486,-0.748 -0.486,-1.234 0,-0.482 0.162,-0.886 0.486,-1.216 0.325,-0.331 0.723,-0.497 1.193,-0.497 0.244,0 0.45,0.04 0.62,0.119 0.095,0.04 0.194,0.093 0.296,0.161 0.102,0.067 0.209,0.148 0.321,0.243 l 0,-0.835 c -0.395,-0.225 -0.81,-0.337 -1.245,-0.337 -0.655,0 -1.214,0.228 -1.677,0.685 -0.461,0.461 -0.692,1.018 -0.692,1.667 0,0.584 0.194,1.104 0.58,1.562 0.474,0.559 1.089,0.838 1.842,0.838 C -0.781,0.333 -0.383,0.223 0,0" /></g><g
           transform="translate(118.8203,87.2905)"
           id="g5229"><path
             inkscape:connector-curvature="0"
             id="path5231"
             style="fill:#4d5054;fill-opacity:1;fill-rule:nonzero;stroke:none"
             d="m 0,0 1.976,0 0,1.792 0.692,0 0,-4.581 -0.692,0 0,2.139 -1.976,0 0,-2.139 -0.692,0 0,4.581 L 0,1.792 0,0 Z" /></g><g
           transform="translate(123.419,86.8054)"
           id="g5233"><path
             inkscape:connector-curvature="0"
             id="path5235"
             style="fill:#4d5054;fill-opacity:1;fill-rule:nonzero;stroke:none"
             d="m 0,0 c 0,-0.506 0.17,-0.922 0.51,-1.248 0.338,-0.326 0.729,-0.489 1.173,-0.489 0.48,0 0.886,0.166 1.215,0.499 0.331,0.335 0.496,0.744 0.496,1.227 0,0.488 -0.163,0.897 -0.489,1.226 C 2.58,1.548 2.179,1.714 1.7,1.714 1.223,1.714 0.82,1.548 0.492,1.215 0.164,0.888 0,0.483 0,0 m -0.698,0.007 c 0,0.646 0.237,1.199 0.71,1.662 0.47,0.463 1.036,0.695 1.697,0.695 0.652,0 1.213,-0.234 1.679,-0.701 0.468,-0.466 0.703,-1.027 0.703,-1.682 0,-0.659 -0.235,-1.218 -0.706,-1.677 -0.473,-0.461 -1.043,-0.691 -1.712,-0.691 -0.591,0 -1.122,0.205 -1.593,0.615 -0.518,0.452 -0.778,1.046 -0.778,1.779" /></g><g
           transform="translate(129.2134,86.8054)"
           id="g5237"><path
             inkscape:connector-curvature="0"
             id="path5239"
             style="fill:#4d5054;fill-opacity:1;fill-rule:nonzero;stroke:none"
             d="m 0,0 c 0,-0.506 0.17,-0.922 0.51,-1.248 0.338,-0.326 0.729,-0.489 1.173,-0.489 0.48,0 0.886,0.166 1.216,0.499 0.331,0.335 0.496,0.744 0.496,1.227 0,0.488 -0.163,0.897 -0.49,1.226 C 2.58,1.548 2.179,1.714 1.7,1.714 1.224,1.714 0.82,1.548 0.493,1.215 0.165,0.888 0,0.483 0,0 m -0.697,0.007 c 0,0.646 0.236,1.199 0.709,1.662 0.471,0.463 1.037,0.695 1.697,0.695 0.653,0 1.213,-0.234 1.679,-0.701 0.469,-0.466 0.703,-1.027 0.703,-1.682 0,-0.659 -0.235,-1.218 -0.705,-1.677 -0.474,-0.461 -1.043,-0.691 -1.712,-0.691 -0.592,0 -1.123,0.205 -1.594,0.615 -0.518,0.452 -0.777,1.046 -0.777,1.779" /></g><g
           transform="translate(135.2559,89.0826)"
           id="g5241"><path
             inkscape:connector-curvature="0"
             id="path5243"
             style="fill:#4d5054;fill-opacity:1;fill-rule:nonzero;stroke:none"
             d="m 0,0 0,-3.931 1.544,0 0,-0.65 -2.236,0 0,4.581 L 0,0 Z" /></g><g
           transform="translate(88.6406,89.0826)"
           id="g5245"><path
             inkscape:connector-curvature="0"
             id="path5247"
             style="fill:#4d5054;fill-opacity:1;fill-rule:nonzero;stroke:none"
             d="m 0,0 0,-3.931 1.544,0 0,-0.65 -2.236,0 0,4.581 L 0,0 Z" /></g><g
           transform="translate(65.5367,99.384)"
           id="g5249"><path
             inkscape:connector-curvature="0"
             id="path5251"
             style="fill:#4d5054;fill-opacity:1;fill-rule:nonzero;stroke:none"
             d="M 0,0 1.801,0 3.23,-3.762 4.743,0 l 1.82,0 1.289,-7.038 -1.982,0 -0.586,4.051 -0.019,0 -1.689,-4.051 -0.729,0 -1.615,4.051 -0.018,0 -0.66,-4.051 -1.853,0 L 0,0 Z" /></g><g
           transform="translate(77.4459,97.2086)"
           id="g5253"><path
             inkscape:connector-curvature="0"
             id="path5255"
             style="fill:#4d5054;fill-opacity:1;fill-rule:nonzero;stroke:none"
             d="m 0,0 -0.019,0 -0.756,-2.24 1.521,0 L 0,0 Z m -1.28,-3.64 -0.485,-1.223 -1.942,0 2.708,7.038 1.998,0 2.65,-7.038 -1.951,0 -0.457,1.223 -2.521,0 z" /></g><g
           transform="translate(81.6311,99.384)"
           id="g5257"><path
             inkscape:connector-curvature="0"
             id="path5259"
             style="fill:#4d5054;fill-opacity:1;fill-rule:nonzero;stroke:none"
             d="m 0,0 1.829,0 3.351,-4.303 0.019,0 0,4.303 1.83,0 0,-7.038 -1.83,0 -3.351,4.313 -0.019,0 0,-4.313 L 0,-7.038 0,0 Z" /></g><g
           transform="translate(92.9019,97.2086)"
           id="g5261"><path
             inkscape:connector-curvature="0"
             id="path5263"
             style="fill:#4d5054;fill-opacity:1;fill-rule:nonzero;stroke:none"
             d="m 0,0 -0.019,0 -0.756,-2.24 1.523,0 L 0,0 Z m -1.278,-3.64 -0.486,-1.223 -1.942,0 2.707,7.038 1.998,0 2.651,-7.038 -1.95,0 -0.458,1.223 -2.52,0 z" /></g><g
           transform="translate(103.8595,96.2757)"
           id="g5265"><path
             inkscape:connector-curvature="0"
             id="path5267"
             style="fill:#4d5054;fill-opacity:1;fill-rule:nonzero;stroke:none"
             d="m 0,0 c -0.019,-1.027 -0.093,-1.904 -0.719,-2.782 -0.691,-0.961 -1.728,-1.382 -2.903,-1.382 -2.213,0 -3.753,1.503 -3.753,3.716 0,2.287 1.55,3.79 3.818,3.79 1.447,0 2.567,-0.654 3.174,-1.97 L -2.119,0.644 c -0.252,0.672 -0.785,1.12 -1.523,1.12 -1.203,0 -1.829,-1.148 -1.829,-2.222 0,-1.092 0.654,-2.203 1.858,-2.203 0.793,0 1.4,0.411 1.475,1.223 l -1.493,0 0,1.438 L 0,0 Z" /></g><g
           transform="translate(106.545,97.8345)"
           id="g5269"><path
             inkscape:connector-curvature="0"
             id="path5271"
             style="fill:#4d5054;fill-opacity:1;fill-rule:nonzero;stroke:none"
             d="m 0,0 0,-1.175 2.063,0 0,-1.551 -2.063,0 0,-1.213 2.175,0 0,-1.55 -4.004,0 0,7.038 4.004,0 L 2.175,0 0,0 Z" /></g><g
           transform="translate(121.0276,97.8345)"
           id="g5273"><path
             inkscape:connector-curvature="0"
             id="path5275"
             style="fill:#4d5054;fill-opacity:1;fill-rule:nonzero;stroke:none"
             d="m 0,0 0,-1.175 2.063,0 0,-1.551 -2.063,0 0,-1.213 2.175,0 0,-1.55 -4.005,0 0,7.038 4.005,0 L 2.175,0 0,0 Z" /></g><g
           transform="translate(124.3372,99.384)"
           id="g5277"><path
             inkscape:connector-curvature="0"
             id="path5279"
             style="fill:#4d5054;fill-opacity:1;fill-rule:nonzero;stroke:none"
             d="m 0,0 1.83,0 3.351,-4.303 0.019,0 0,4.303 1.83,0 0,-7.038 -1.83,0 -3.351,4.313 -0.019,0 0,-4.313 -1.83,0 L 0,0 Z" /></g><g
           transform="translate(135.2879,92.3456)"
           id="g5281"><path
             inkscape:connector-curvature="0"
             id="path5283"
             style="fill:#4d5054;fill-opacity:1;fill-rule:nonzero;stroke:none"
             d="m 0,0 -1.83,0 0,5.489 -1.512,0 0,1.549 4.854,0 0,-1.549 L 0,5.489 0,0 Z" /></g><g
           transform="translate(110.6819,99.3848)"
           id="g5285"><path
             inkscape:connector-curvature="0"
             id="path5287"
             style="fill:#4d5054;fill-opacity:1;fill-rule:nonzero;stroke:none"
             d="M 0,0 1.802,0 3.23,-3.762 4.743,0 l 1.819,0 1.289,-7.038 -1.981,0 -0.586,4.051 -0.019,0 -1.689,-4.051 -0.729,0 -1.615,4.051 -0.018,0 -0.66,-4.051 -1.853,0 L 0,0 Z" /></g><g
           transform="translate(96.3872,114.1181)"
           id="g5289"><path
             inkscape:connector-curvature="0"
             id="path5291"
             style="fill:#a31934;fill-opacity:1;fill-rule:nonzero;stroke:none"
             d="m 0,0 -0.096,0.513 -2.13,11.444 -7.157,0 -4.851,-11.616 -4.851,11.616 -7.191,0 -4.447,-23.915 7.134,0 2.29,12.251 5.372,-12.251 3.387,0 5.345,12.251 2.274,-12.251 2.498,0 2.423,0 L 0,0 Z" /></g></g></g></g></svg>